<svg version="1.0" xmlns="http://www.w3.org/2000/svg" width="700pt" height="700pt" viewBox="0 0 700 700"><g transform="translate(0.000000,700.000000) scale(0.100000,-0.100000)" fill="#000" stroke="none"><path d="M1630 6993c-370-64-644-315-732-670l-22-88V35e2 765l22-88c64-259 236-475 468-587 80-38 103-46 209-70 76-18 172-18 1945-17 1026 2 1879 6 1895 10 17 4 59 17 95 28 298 95 516 329 592 636l21 88 1 2133 1 2132-985 985-984 985-1251-1c-687-1-1261-4-1275-6zm2518-437c4-4 8-220 8-479 1-260 4-483 8-497 24-102 29-121 37-126 5-3 9-13 9-23 0-9 24-54 54-99l54-82h-954c-756 0-954-3-955-12 0-7-2-795-2-1751l-2-1737h1093c1033 0 1092 1 1093 18 3 55 4 449 1 460-3 9-173 12-806 12h-801l1 520c0 286 3 522 6 526 4 3 344 6 757 6l751 1v233 234l-22 1c-13 0-353 1-757 2l-735 2v497l-1 497h798c438 0 801 2 805 5 4 2 7 71 6 154v149l50-13c88-22 121-23 588-24h456V2935c0-1161-5-2116-9-2142-22-114-110-238-209-295-25-14-72-34-105-44-56-16-171-17-1839-18-1292-1-1798 2-1847 10-140 24-262 115-320 237-16 35-33 75-36 88-10 37-12 5383-2 5436 35 185 191 328 383 352 73 9 2435 6 2444-3z"/></g></svg>