<?xml version="1.0" standalone="no"?>
<!DOCTYPE svg PUBLIC "-//W3C//DTD SVG 20010904//EN"
 "http://www.w3.org/TR/2001/REC-SVG-20010904/DTD/svg10.dtd">
<svg version="1.0" xmlns="http://www.w3.org/2000/svg"
 width="700.000000pt" height="700.000000pt" viewBox="0 0 700.000000 700.000000"
 preserveAspectRatio="xMidYMid meet">
<metadata>
Created by potrace 1.14, written by Peter Selinger 2001-2017
</metadata>
<g transform="translate(0.000000,700.000000) scale(0.100000,-0.100000)"
fill="#000000" stroke="none">
<path d="M1630 6993 c-370 -64 -644 -315 -732 -670 l-22 -88 0 -2735 0 -2735
22 -88 c64 -259 236 -475 468 -587 80 -38 103 -46 209 -70 76 -18 172 -18
1945 -17 1026 2 1879 6 1895 10 17 4 59 17 95 28 298 95 516 329 592 636 l21
88 1 2133 1 2132 -985 985 -984 985 -1251 -1 c-687 -1 -1261 -4 -1275 -6z
m2518 -437 c4 -4 8 -220 8 -479 1 -260 4 -483 8 -497 24 -102 29 -121 37 -126
5 -3 9 -13 9 -23 0 -9 24 -54 54 -99 l54 -82 -954 0 c-756 0 -954 -3 -955 -12
0 -7 -2 -795 -2 -1751 l-2 -1737 1093 0 c1033 0 1092 1 1093 18 3 55 4 449 1
460 -3 9 -173 12 -806 12 l-801 0 1 520 c0 286 3 522 6 526 4 3 344 6 757 6
l751 1 0 233 0 234 -22 1 c-13 0 -353 1 -757 2 l-735 2 0 497 -1 497 798 0
c438 0 801 2 805 5 4 2 7 71 6 154 l0 149 50 -13 c88 -22 121 -23 588 -24
l456 0 0 -2095 c0 -1161 -5 -2116 -9 -2142 -22 -114 -110 -238 -209 -295 -25
-14 -72 -34 -105 -44 -56 -16 -171 -17 -1839 -18 -1292 -1 -1798 2 -1847 10
-140 24 -262 115 -320 237 -16 35 -33 75 -36 88 -10 37 -12 5383 -2 5436 35
185 191 328 383 352 73 9 2435 6 2444 -3z"/>
</g>
</svg>
